<svg viewBox="0 0 156.72 67.62" xmlns="http://www.w3.org/2000/svg"><path d="m18.98 22.48h-.01l-4.42 30.26-4.43-30.26h-10.12v45.07h6.63v-34.12h.01l4.99 34.14v.01h5.83l4.99-34.15h.01v34.12h6.63v-45.07zm17.92 34.07v-23c0-7 3.55-11 10.06-11s10.06 4 10.06 11v23c0 7-3.55 11-10.06 11s-10.06-3.99-10.06-11zm13.5.44v-23.92c0-3.13-1.33-4.32-3.43-4.32s-3.48 1.19-3.48 4.32v23.91c0 3.13 1.33 4.32 3.43 4.32s3.47-1.19 3.47-4.32zm80.61-22.82a2.34 2.34 0 0 0 0-2.15l-1.72-3.5c0-3.4-.06-7.75-.11-10.58a2.58 2.58 0 0 1 -.78-1.38v-7.63c-.11-1.77-1.48-8-2.51-8.93-1 .89-2.4 7.16-2.51 8.93v7.63a2.58 2.58 0 0 1 -.78 1.38c-.11 2.82-.11 7.18-.11 10.58l-1.72 3.5a2.34 2.34 0 0 0 0 2.15h1.79c.11 1 .18 2.87.22 4.75l-1.24 2a1.28 1.28 0 0 0 0 1l1.26.38v.62h6.2v-.62l1.26-.38a1.28 1.28 0 0 0 0-1l-1.24-2c0-1.87.11-3.75.22-4.75h1.79zm-8.94 14.32h.95v10.64h-.95zm3.3-2.83h.95v11.13h-.95zm3.3 2.83h.95v10.64h-.95zm-63.84 8.06v-2.5h6.66v3c0 3.13 1.4 4.26 3.63 4.26s3.63-1.13 3.63-4.38c0-3.63-1.4-5.95-6-9.89-5.86-5.07-7.77-8.64-7.77-13.65 0-6.89 3.63-10.89 10.44-10.89s10.19 4 10.19 11v1.83h-6.62v-2.26c0-3.13-1.27-4.32-3.5-4.32s-3.5 1.19-3.5 4.19c0 3.19 1.46 5.51 6 9.45 5.86 5.07 7.71 8.58 7.71 14 0 7.14-3.69 11.14-10.57 11.14s-10.3-3.97-10.3-10.98zm42.55-18.04 7.43-16h-5.54l-9.09 19.57v-19.57h-6.64v45.07h6.64v-13.55l3.02-6.52 3.47 11.62 4.47-8.23-3.7-12.41zm49.34-16h-19.66v6.64h6.51v26.44l6.63 12.03h.01v-38.47h6.51z" fill="#155bfb"/></svg>