<svg width="26" height="13" viewBox="0 0 26 13" fill="none" xmlns="http://www.w3.org/2000/svg">
<path d="M4.69132 0H6.80328L11.4773 12.2909H9.01911L7.87657 9.22684H3.58341L2.45818 12.2909H0L4.69132 0ZM7.4438 7.54766L5.7473 2.71785L3.98157 7.54766H7.4438Z" fill="white"/>
<path d="M12.8254 12.2909V0H18.0361C18.6016 0 19.1209 0.121178 19.5941 0.363535C20.0788 0.59435 20.4942 0.90595 20.8405 1.29834C21.1867 1.67918 21.4579 2.11773 21.6541 2.61398C21.8503 3.0987 21.9484 3.58918 21.9484 4.08543C21.9484 4.60477 21.8561 5.11256 21.6714 5.60881C21.4867 6.09353 21.2271 6.5263 20.8924 6.90715C20.5577 7.28799 20.1538 7.59383 19.6806 7.82464C19.2074 8.05546 18.6881 8.17086 18.1226 8.17086H15.2143V12.2909H12.8254ZM15.2143 6.07621H17.9841C18.4227 6.07621 18.7862 5.89733 19.0747 5.53957C19.3748 5.1818 19.5248 4.69709 19.5248 4.08543C19.5248 3.77383 19.4787 3.49685 19.3863 3.2545C19.294 3.0006 19.1728 2.7871 19.0228 2.61398C18.8728 2.44087 18.6939 2.31392 18.4861 2.23314C18.29 2.14081 18.088 2.09465 17.8803 2.09465H15.2143V6.07621Z" fill="white"/>
<path d="M23.6111 12.2909V0H26V12.2909H23.6111Z" fill="white"/>
</svg>
