<svg width="76" height="128" viewBox="0 0 76 128" fill="none" xmlns="http://www.w3.org/2000/svg">
<path d="M0.5 75.6643H75.5V107.47L38 127.434L0.5 107.47V75.6643Z" stroke="black"/>
<path d="M76 0H0V75.1643H76V0Z" fill="black"/>
<path d="M18.9095 11.5865V12.6042C18.9095 14.4889 18.2997 16.0155 17.0802 17.1839C15.8606 18.3525 14.2789 18.9367 12.3543 18.9367C10.2961 18.9367 8.58117 18.2771 7.22815 16.9578C5.87513 15.6197 5.20801 13.9989 5.20801 12.0954C5.20801 10.173 5.87513 8.55223 7.20909 7.21409C8.56211 5.87595 10.2198 5.21631 12.2018 5.21631C14.6982 5.21631 16.8705 6.42249 18.0139 8.28832L15.7653 9.56991C15.1363 8.49568 13.7642 7.74178 12.1828 7.74178C10.906 7.74178 9.85785 8.15641 9.03833 8.98567C8.21901 9.79612 7.81874 10.8326 7.81874 12.0954C7.81874 13.3393 8.23807 14.3758 9.05739 15.1862C9.89606 15.9966 11.0013 16.3924 12.3734 16.3924C14.4123 16.3924 15.7844 15.45 16.2606 13.8858H12.2209V11.5865H18.9095Z" fill="white"/>
<path d="M22.8469 10.8701C23.2816 9.66388 24.3678 9.06079 25.5989 9.06079V11.7746C24.924 11.6716 24.2352 11.834 23.6798 12.2271C23.1187 12.6228 22.8469 13.2636 22.8469 14.1681V18.6726H20.5117V9.2493H22.8469V10.8701Z" fill="white"/>
<path d="M29.5423 14.9597C29.8664 16.147 30.7619 16.7313 32.2293 16.7313C33.163 16.7313 33.8873 16.411 34.3635 15.789L36.3456 16.9198C35.4119 18.2579 34.0207 18.9364 32.1912 18.9364C30.6095 18.9364 29.352 18.4651 28.399 17.5229C27.4462 16.5805 26.9698 15.3931 26.9697 13.9609C26.9697 12.5473 27.4462 11.36 28.3799 10.4177C29.3139 9.45649 30.5335 8.98535 32.0006 8.98535C33.3917 8.98535 34.5541 9.45649 35.45 10.4177C36.3646 11.3789 36.8218 12.5473 36.8218 13.9609C36.8167 14.2958 36.7848 14.6298 36.7265 14.9597H29.5423ZM34.3635 13.075C34.0779 11.7934 33.1249 11.1715 32.0006 11.1715C30.6857 11.1715 29.7901 11.8688 29.5042 13.075H34.3635Z" fill="white"/>
<path d="M45.6842 9.24927H48.1424V18.6725H45.6842V17.5606C44.9411 18.484 43.9121 18.9364 42.5781 18.9364C41.3014 18.9364 40.2152 18.4651 39.3003 17.504C38.4047 16.5429 37.9473 15.3554 37.9473 13.9609C37.9473 12.5662 38.4047 11.3977 39.3003 10.4366C40.2152 9.47534 41.3014 8.98535 42.5781 8.98535C43.9121 8.98535 44.9411 9.43763 45.6842 10.3612V9.24927ZM43.0353 16.6182C43.7977 16.6182 44.4266 16.3732 44.922 15.8833C45.4364 15.3743 45.6842 14.7336 45.6842 13.9609C45.6842 13.1881 45.4364 12.5473 44.922 12.0574C44.4265 11.5485 43.7977 11.3035 43.0353 11.3035C42.2732 11.3035 41.6442 11.5485 41.1489 12.0574C40.6533 12.5473 40.4055 13.1881 40.4055 13.9609C40.4055 14.7336 40.6533 15.3743 41.1489 15.8833C41.6442 16.3733 42.273 16.6182 43.0353 16.6182V16.6182Z" fill="white"/>
<path d="M56.2051 11.5861H54.0515V15.5062C54.0515 16.524 54.7949 16.5428 56.2051 16.4674V18.6724C52.8319 19.0493 51.5933 18.0882 51.5933 15.5062V11.5861H49.9355V9.24918H51.5933V7.34565L54.0515 6.6106V9.24918H56.2051V11.5861Z" fill="white"/>
<path d="M11.9336 22.0498C13.2104 22.0498 14.2966 22.4832 15.1731 23.3314C16.0499 24.1794 16.488 25.2349 16.488 26.4788C16.488 27.7225 16.0499 28.7781 15.1731 29.6261C14.2966 30.4742 13.2104 30.9077 11.9336 30.9077H9.58976V35.2424H6.95996V22.0498H11.9336ZM11.9336 28.4764C13.0579 28.4764 13.8772 27.6096 13.8772 26.4788C13.8772 25.329 13.0579 24.481 11.9336 24.481H9.58976V28.4764H11.9336Z" fill="white"/>
<path d="M18.2812 35.2425V22.1719H20.7395V35.2425H18.2812Z" fill="white"/>
<path d="M30.61 25.8191H33.0682V35.2423H30.61V34.1304C29.8669 35.0538 28.8379 35.5063 27.5039 35.5063C26.2272 35.5063 25.141 35.035 24.2261 34.0739C23.3305 33.1127 22.873 31.9254 22.873 30.5307C22.873 29.136 23.3305 27.9675 24.2261 27.0064C25.141 26.0452 26.2271 25.5552 27.5039 25.5552C28.8379 25.5552 29.8669 26.0075 30.61 26.931V25.8191ZM27.9611 33.188C28.7235 33.188 29.3524 32.943 29.8478 32.4531C30.3622 31.9441 30.61 31.3035 30.61 30.5307C30.61 29.758 30.3622 29.1172 29.8478 28.6272C29.3522 28.1184 28.7235 27.8733 27.9611 27.8733C27.199 27.8733 26.57 28.1184 26.0747 28.6272C25.5791 29.1172 25.3313 29.758 25.3313 30.5307C25.3313 31.3035 25.5791 31.9441 26.0747 32.4531C26.57 32.9431 27.1988 33.1881 27.9611 33.188V33.188Z" fill="white"/>
<path d="M36.6138 34.0738C35.6611 33.1127 35.1846 31.9441 35.1846 30.5307C35.1846 29.1172 35.6611 27.9487 36.6138 26.9876C37.5859 26.0263 38.7865 25.5552 40.2154 25.5552C42.064 25.5552 43.7027 26.4974 44.4842 27.9864L42.369 29.2114C41.9878 28.4387 41.1685 27.9487 40.1964 27.9487C38.7293 27.9487 37.6428 29.0229 37.6428 30.5307C37.6343 30.8706 37.6939 31.2088 37.8182 31.5258C37.9426 31.8428 38.1291 32.1323 38.3671 32.3777C38.8434 32.8488 39.4533 33.0939 40.1964 33.0939C41.1875 33.0939 42.0069 32.6226 42.3881 31.85L44.5223 33.0562C43.6839 34.545 42.064 35.5062 40.2154 35.5062C38.7865 35.5062 37.5859 35.035 36.6138 34.0738Z" fill="white"/>
<path d="M48.4486 31.5295C48.7726 32.7169 49.6682 33.3011 51.1356 33.3011C52.0693 33.3011 52.7936 32.9808 53.2698 32.3588L55.2518 33.4896C54.3181 34.8278 52.927 35.5063 51.0974 35.5063C49.516 35.5063 48.2583 35.035 47.3052 34.0927C46.3525 33.1503 45.8761 31.963 45.876 30.5307C45.876 29.1172 46.3525 27.9298 47.2862 26.9876C48.2202 26.0263 49.4397 25.5552 50.9068 25.5552C52.298 25.5552 53.4604 26.0263 54.3563 26.9876C55.2709 27.9487 55.728 29.1172 55.728 30.5307C55.7229 30.8656 55.691 31.1996 55.6327 31.5295H48.4486ZM53.2698 29.6449C52.9842 28.3633 52.0311 27.7413 50.9068 27.7413C49.5919 27.7413 48.6964 28.4387 48.4105 29.6449H53.2698Z" fill="white"/>
<path d="M15.022 39.2791V41.6426H11.4204V51.8126H8.79055V41.6426H5.20801V39.2791H15.022Z" fill="white"/>
<path d="M19.1188 52.0764C17.7088 52.0764 16.508 51.6051 15.5362 50.644C14.5644 49.6828 14.0879 48.4954 14.0879 47.1008C14.0879 45.7061 14.5644 44.5376 15.5362 43.5765C16.508 42.6152 17.7088 42.1252 19.1188 42.1252C20.529 42.1252 21.7295 42.6152 22.7013 43.5765C23.6734 44.5376 24.1687 45.7061 24.1687 47.1008C24.1687 48.4953 23.6734 49.6828 22.7013 50.644C21.7295 51.6051 20.529 52.0764 19.1188 52.0764ZM19.1188 49.7015C19.4614 49.7109 19.8023 49.6506 20.1203 49.5241C20.4383 49.3977 20.7266 49.2079 20.9674 48.9666C21.4626 48.4766 21.7103 47.8547 21.7104 47.1008C21.7104 46.3469 21.4627 45.725 20.9674 45.235C20.4702 44.7633 19.8079 44.4999 19.1189 44.4999C18.4299 44.4999 17.7676 44.7633 17.2704 45.235C16.7939 45.725 16.5461 46.3469 16.5461 47.1008C16.5461 47.8547 16.7939 48.4766 17.2704 48.9666C17.5111 49.2079 17.7994 49.3977 18.1174 49.5241C18.4353 49.6505 18.7762 49.7109 19.1188 49.7015Z" fill="white"/>
<path d="M9.30241 69.1531L5.56738 55.9604H8.3306L10.8839 65.7419L13.6661 55.9604H15.9147L18.7161 65.7419L21.2696 55.9604H24.0328L20.2978 69.1531H17.3059L14.7904 60.4459L12.2941 69.1531H9.30241Z" fill="white"/>
<path d="M28.8375 69.4171C27.4276 69.4171 26.2268 68.9459 25.255 67.9848C24.2832 67.0236 23.8066 65.8362 23.8066 64.4416C23.8066 63.0469 24.2832 61.8784 25.255 60.9173C26.2268 59.9561 27.4276 59.4661 28.8375 59.4661C30.2477 59.4661 31.4482 59.956 32.4201 60.9173C33.3922 61.8784 33.8874 63.0469 33.8874 64.4416C33.8874 65.8362 33.3922 67.0236 32.4201 67.9848C31.4482 68.9459 30.2477 69.4171 28.8375 69.4171ZM28.8375 67.0423C29.1801 67.0517 29.521 66.9914 29.8391 66.8649C30.1571 66.7385 30.4454 66.5487 30.6861 66.3074C31.1814 65.8174 31.4291 65.1955 31.4292 64.4416C31.4292 63.6877 31.1815 63.0658 30.6861 62.5758C30.1889 62.1041 29.5266 61.8407 28.8377 61.8407C28.1487 61.8407 27.4864 62.1041 26.9892 62.5758C26.5127 63.0658 26.2649 63.6877 26.2649 64.4416C26.2649 65.1955 26.5127 65.8174 26.9892 66.3074C27.2299 66.5487 27.5181 66.7385 27.8361 66.8649C28.1541 66.9914 28.4949 67.0517 28.8375 67.0423Z" fill="white"/>
<path d="M38.0793 61.3508C38.5368 60.1446 39.6802 59.5415 40.976 59.5415V62.2554C40.2691 62.1515 39.5485 62.3129 38.9558 62.7078C38.3653 63.1035 38.0793 63.7443 38.0793 64.6489V69.1533H35.6211V59.73H38.0793V61.3508Z" fill="white"/>
<path d="M51.5721 69.1531H48.7135L45.2454 64.8749V69.1531H42.7871V55.9604H45.2454V63.8761L48.5229 59.7298H51.4577L47.6274 64.3849L51.5721 69.1531Z" fill="white"/>
<path d="M52.4688 67.4546C52.465 67.0323 52.5881 66.6185 52.8226 66.2656C53.057 65.9127 53.3921 65.6366 53.7854 65.4724C54.1788 65.3082 54.6126 65.2633 55.0318 65.3433C55.451 65.4234 55.8367 65.6248 56.1399 65.922C56.4432 66.2193 56.6503 66.5989 56.735 67.0127C56.8197 67.4266 56.7782 67.856 56.6158 68.2465C56.4533 68.637 56.1772 68.9709 55.8225 69.2059C55.4678 69.4409 55.0505 69.5664 54.6235 69.5665C54.341 69.5709 54.0604 69.5194 53.7982 69.4151C53.536 69.3108 53.2976 69.1557 53.0968 68.959C52.8961 68.7622 52.7371 68.5278 52.6293 68.2695C52.5215 68.0111 52.4669 67.7341 52.4688 67.4546ZM56.3898 67.445C56.3898 66.3988 55.6521 65.6692 54.6235 65.6692C53.5946 65.6692 52.8569 66.4084 52.8569 67.4546C52.8569 68.5105 53.6333 69.2208 54.6235 69.2208C55.6229 69.2208 56.3898 68.4914 56.3898 67.445ZM53.8858 66.3699H54.633C55.1281 66.3699 55.4482 66.5716 55.4482 67.0034V67.0132C55.4541 67.1432 55.4136 67.2712 55.3338 67.3747C55.254 67.4782 55.1399 67.5507 55.0116 67.5794L55.5746 68.472H55.0894L54.5749 67.6562H54.3517V68.472H53.8858V66.3699ZM54.6235 67.3395C54.8662 67.3395 54.9922 67.2338 54.9922 67.0323V67.0227C54.9922 66.8019 54.8563 66.7252 54.6235 66.7252H54.3517V67.3395H54.6235Z" fill="white"/>
<path d="M7.30109 103.01V103.534H4.33447C4.33039 103.403 4.35182 103.276 4.39877 103.155C4.47428 102.956 4.5947 102.759 4.76003 102.565C4.92739 102.371 5.16823 102.147 5.48255 101.893C5.97035 101.497 6.29997 101.184 6.47142 100.954C6.64286 100.722 6.72859 100.503 6.72859 100.297C6.72859 100.081 6.65001 99.8994 6.49285 99.752C6.33773 99.6027 6.13465 99.528 5.8836 99.528C5.61827 99.528 5.40601 99.6067 5.24681 99.7641C5.08761 99.9216 5.00699 100.14 5.00495 100.418L4.43857 100.361C4.47735 99.9428 4.62328 99.6249 4.87636 99.4069C5.12945 99.1868 5.46928 99.0768 5.89585 99.0768C6.32651 99.0768 6.66735 99.1949 6.9184 99.4311C7.16944 99.6672 7.29497 99.9599 7.29497 100.309C7.29497 100.487 7.25823 100.661 7.18475 100.833C7.11128 101.005 6.98881 101.185 6.81737 101.375C6.64796 101.565 6.36528 101.825 5.96933 102.156C5.63868 102.431 5.42642 102.617 5.33253 102.716C5.23864 102.813 5.16109 102.911 5.09985 103.01H7.30109Z" fill="black"/>
<path d="M10.7545 100.182L10.2065 100.224C10.1575 100.01 10.0881 99.855 9.99829 99.7581C9.8493 99.6027 9.66561 99.5249 9.44722 99.5249C9.27169 99.5249 9.11759 99.5734 8.98493 99.6703C8.81144 99.7954 8.67469 99.9781 8.57468 100.218C8.47467 100.459 8.42263 100.801 8.41855 101.245C8.55121 101.045 8.71347 100.897 8.90533 100.8C9.09718 100.703 9.29822 100.654 9.50845 100.654C9.87583 100.654 10.1881 100.789 10.4453 101.057C10.7045 101.323 10.8341 101.669 10.8341 102.093C10.8341 102.371 10.7729 102.631 10.6504 102.871C10.53 103.109 10.3636 103.292 10.1514 103.419C9.9391 103.546 9.69826 103.61 9.42885 103.61C8.96962 103.61 8.59509 103.443 8.30527 103.11C8.01545 102.775 7.87053 102.224 7.87053 101.457C7.87053 100.599 8.03075 99.9751 8.35119 99.5855C8.63081 99.2464 9.00738 99.0768 9.48089 99.0768C9.83399 99.0768 10.1228 99.1747 10.3473 99.3705C10.5739 99.5663 10.7096 99.8368 10.7545 100.182ZM8.50427 102.096C8.50427 102.283 8.54407 102.463 8.62367 102.635C8.70531 102.806 8.81858 102.937 8.9635 103.028C9.10841 103.117 9.26046 103.161 9.41966 103.161C9.65234 103.161 9.85236 103.069 10.0197 102.883C10.1871 102.697 10.2708 102.445 10.2708 102.126C10.2708 101.819 10.1881 101.578 10.0228 101.402C9.85746 101.225 9.64928 101.136 9.39823 101.136C9.14923 101.136 8.93798 101.225 8.7645 101.402C8.59101 101.578 8.50427 101.809 8.50427 102.096Z" fill="black"/>
<path d="M11.1249 103.61L12.4261 99.0193H12.8669L11.5689 103.61H11.1249Z" fill="black"/>
<path d="M13.1302 101.345C13.1302 100.82 13.1843 100.398 13.2925 100.079C13.4027 99.7581 13.565 99.5108 13.7793 99.3372C13.9956 99.1636 14.2671 99.0768 14.5936 99.0768C14.8345 99.0768 15.0457 99.1253 15.2274 99.2222C15.409 99.317 15.559 99.4553 15.6774 99.637C15.7958 99.8166 15.8887 100.037 15.956 100.297C16.0234 100.555 16.057 100.905 16.057 101.345C16.057 101.865 16.003 102.286 15.8948 102.607C15.7866 102.926 15.6244 103.174 15.408 103.349C15.1937 103.523 14.9222 103.61 14.5936 103.61C14.1609 103.61 13.8211 103.456 13.5742 103.149C13.2782 102.78 13.1302 102.178 13.1302 101.345ZM13.6966 101.345C13.6966 102.073 13.7823 102.559 13.9538 102.801C14.1273 103.041 14.3406 103.161 14.5936 103.161C14.8467 103.161 15.059 103.04 15.2304 102.798C15.4039 102.556 15.4907 102.071 15.4907 101.345C15.4907 100.614 15.4039 100.128 15.2304 99.8883C15.059 99.6481 14.8447 99.528 14.5875 99.528C14.3344 99.528 14.1324 99.6339 13.9813 99.8459C13.7915 100.116 13.6966 100.616 13.6966 101.345Z" fill="black"/>
<path d="M19.5166 103.01V103.534H16.55C16.5459 103.403 16.5673 103.276 16.6142 103.155C16.6898 102.956 16.8102 102.759 16.9755 102.565C17.1429 102.371 17.3837 102.147 17.698 101.893C18.1858 101.497 18.5154 101.184 18.6869 100.954C18.8583 100.722 18.9441 100.503 18.9441 100.297C18.9441 100.081 18.8655 99.8994 18.7083 99.752C18.5532 99.6027 18.3501 99.528 18.0991 99.528C17.8337 99.528 17.6215 99.6067 17.4623 99.7641C17.3031 99.9216 17.2225 100.14 17.2204 100.418L16.654 100.361C16.6928 99.9428 16.8388 99.6249 17.0918 99.4069C17.3449 99.1868 17.6848 99.0768 18.1113 99.0768C18.542 99.0768 18.8828 99.1949 19.1339 99.4311C19.3849 99.6672 19.5104 99.9599 19.5104 100.309C19.5104 100.487 19.4737 100.661 19.4002 100.833C19.3268 101.005 19.2043 101.185 19.0328 101.375C18.8634 101.565 18.5808 101.825 18.1848 102.156C17.8542 102.431 17.6419 102.617 17.548 102.716C17.4541 102.813 17.3766 102.911 17.3153 103.01H19.5166Z" fill="black"/>
<path d="M19.8503 103.61L21.1514 99.0193H21.5923L20.2942 103.61H19.8503Z" fill="black"/>
<path d="M24.7518 103.01V103.534H21.7852C21.7811 103.403 21.8025 103.276 21.8494 103.155C21.925 102.956 22.0454 102.759 22.2107 102.565C22.3781 102.371 22.6189 102.147 22.9332 101.893C23.421 101.497 23.7507 101.184 23.9221 100.954C24.0935 100.722 24.1793 100.503 24.1793 100.297C24.1793 100.081 24.1007 99.8994 23.9435 99.752C23.7884 99.6027 23.5853 99.528 23.3343 99.528C23.069 99.528 22.8567 99.6067 22.6975 99.7641C22.5383 99.9216 22.4577 100.14 22.4556 100.418L21.8892 100.361C21.928 99.9428 22.074 99.6249 22.327 99.4069C22.5801 99.1868 22.92 99.0768 23.3465 99.0768C23.7772 99.0768 24.118 99.1949 24.3691 99.4311C24.6201 99.6672 24.7456 99.9599 24.7456 100.309C24.7456 100.487 24.7089 100.661 24.6354 100.833C24.562 101.005 24.4395 101.185 24.268 101.375C24.0986 101.565 23.816 101.825 23.42 102.156C23.0894 102.431 22.8771 102.617 22.7832 102.716C22.6893 102.813 22.6118 102.911 22.5505 103.01H24.7518Z" fill="black"/>
<path d="M25.3457 101.345C25.3457 100.82 25.3998 100.398 25.508 100.079C25.6182 99.7581 25.7804 99.5108 25.9947 99.3372C26.2111 99.1636 26.4826 99.0768 26.8091 99.0768C27.05 99.0768 27.2612 99.1253 27.4429 99.2222C27.6245 99.317 27.7745 99.4553 27.8929 99.637C28.0113 99.8166 28.1041 100.037 28.1715 100.297C28.2388 100.555 28.2725 100.905 28.2725 101.345C28.2725 101.865 28.2184 102.286 28.1103 102.607C28.0021 102.926 27.8398 103.174 27.6235 103.349C27.4092 103.523 27.1377 103.61 26.8091 103.61C26.3764 103.61 26.0366 103.456 25.7896 103.149C25.4937 102.78 25.3457 102.178 25.3457 101.345ZM25.9121 101.345C25.9121 102.073 25.9978 102.559 26.1693 102.801C26.3427 103.041 26.556 103.161 26.8091 103.161C27.0622 103.161 27.2745 103.04 27.4459 102.798C27.6194 102.556 27.7061 102.071 27.7061 101.345C27.7061 100.614 27.6194 100.128 27.4459 99.8883C27.2745 99.6481 27.0602 99.528 26.803 99.528C26.5499 99.528 26.3478 99.6339 26.1968 99.8459C26.007 100.116 25.9121 100.616 25.9121 101.345Z" fill="black"/>
<path d="M31.732 103.01V103.534H28.7654C28.7613 103.403 28.7828 103.276 28.8297 103.155C28.9052 102.956 29.0257 102.759 29.191 102.565C29.3583 102.371 29.5992 102.147 29.9135 101.893C30.4013 101.497 30.7309 101.184 30.9024 100.954C31.0738 100.722 31.1595 100.503 31.1595 100.297C31.1595 100.081 31.081 99.8994 30.9238 99.752C30.7687 99.6027 30.5656 99.528 30.3146 99.528C30.0492 99.528 29.837 99.6067 29.6778 99.7641C29.5186 99.9216 29.4379 100.14 29.4359 100.418L28.8695 100.361C28.9083 99.9428 29.0542 99.6249 29.3073 99.4069C29.5604 99.1868 29.9002 99.0768 30.3268 99.0768C30.7575 99.0768 31.0983 99.1949 31.3494 99.4311C31.6004 99.6672 31.7259 99.9599 31.7259 100.309C31.7259 100.487 31.6892 100.661 31.6157 100.833C31.5422 101.005 31.4198 101.185 31.2483 101.375C31.0789 101.565 30.7962 101.825 30.4003 102.156C30.0696 102.431 29.8574 102.617 29.7635 102.716C29.6696 102.813 29.592 102.911 29.5308 103.01H31.732Z" fill="black"/>
<path d="M32.326 101.345C32.326 100.82 32.3801 100.398 32.4882 100.079C32.5985 99.7581 32.7607 99.5108 32.975 99.3372C33.1914 99.1636 33.4628 99.0768 33.7894 99.0768C34.0302 99.0768 34.2415 99.1253 34.4231 99.2222C34.6048 99.317 34.7548 99.4553 34.8732 99.637C34.9915 99.8166 35.0844 100.037 35.1518 100.297C35.2191 100.555 35.2528 100.905 35.2528 101.345C35.2528 101.865 35.1987 102.286 35.0905 102.607C34.9824 102.926 34.8201 103.174 34.6038 103.349C34.3894 103.523 34.118 103.61 33.7894 103.61C33.3567 103.61 33.0169 103.456 32.7699 103.149C32.474 102.78 32.326 102.178 32.326 101.345ZM32.8924 101.345C32.8924 102.073 32.9781 102.559 33.1495 102.801C33.323 103.041 33.5363 103.161 33.7894 103.161C34.0425 103.161 34.2547 103.04 34.4262 102.798C34.5997 102.556 34.6864 102.071 34.6864 101.345C34.6864 100.614 34.5997 100.128 34.4262 99.8883C34.2547 99.6481 34.0404 99.528 33.7833 99.528C33.5302 99.528 33.3281 99.6339 33.1771 99.8459C32.9873 100.116 32.8924 100.616 32.8924 101.345Z" fill="black"/>
<path d="M37.5 102.202V101.654H39.193V102.202H37.5Z" fill="black"/>
<path d="M44.2904 103.01V103.534H41.3238C41.3197 103.403 41.3411 103.276 41.3881 103.155C41.4636 102.956 41.584 102.759 41.7493 102.565C41.9167 102.371 42.1576 102.147 42.4719 101.893C42.9597 101.497 43.2893 101.184 43.4607 100.954C43.6322 100.722 43.7179 100.503 43.7179 100.297C43.7179 100.081 43.6393 99.8994 43.4822 99.752C43.327 99.6027 43.124 99.528 42.8729 99.528C42.6076 99.528 42.3953 99.6067 42.2361 99.7641C42.0769 99.9216 41.9963 100.14 41.9943 100.418L41.4279 100.361C41.4667 99.9428 41.6126 99.6249 41.8657 99.4069C42.1188 99.1868 42.4586 99.0768 42.8852 99.0768C43.3158 99.0768 43.6567 99.1949 43.9077 99.4311C44.1588 99.6672 44.2843 99.9599 44.2843 100.309C44.2843 100.487 44.2475 100.661 44.1741 100.833C44.1006 101.005 43.9781 101.185 43.8067 101.375C43.6373 101.565 43.3546 101.825 42.9586 102.156C42.628 102.431 42.4157 102.617 42.3218 102.716C42.228 102.813 42.1504 102.911 42.0892 103.01H44.2904Z" fill="black"/>
<path d="M47.7438 100.182L47.1958 100.224C47.1468 100.01 47.0774 99.855 46.9876 99.7581C46.8386 99.6027 46.6549 99.5249 46.4365 99.5249C46.261 99.5249 46.1069 99.5734 45.9742 99.6703C45.8008 99.7954 45.664 99.9781 45.564 100.218C45.464 100.459 45.4119 100.801 45.4079 101.245C45.5405 101.045 45.7028 100.897 45.8946 100.8C46.0865 100.703 46.2875 100.654 46.4978 100.654C46.8652 100.654 47.1774 100.789 47.4346 101.057C47.6938 101.323 47.8234 101.669 47.8234 102.093C47.8234 102.371 47.7622 102.631 47.6397 102.871C47.5193 103.109 47.353 103.292 47.1407 103.419C46.9284 103.546 46.6876 103.61 46.4182 103.61C45.9589 103.61 45.5844 103.443 45.2946 103.11C45.0048 102.775 44.8599 102.224 44.8599 101.457C44.8599 100.599 45.0201 99.9751 45.3405 99.5855C45.6201 99.2464 45.9967 99.0768 46.4702 99.0768C46.8233 99.0768 47.1121 99.1747 47.3366 99.3705C47.5632 99.5663 47.6989 99.8368 47.7438 100.182ZM45.4936 102.096C45.4936 102.283 45.5334 102.463 45.613 102.635C45.6946 102.806 45.8079 102.937 45.9528 103.028C46.0977 103.117 46.2498 103.161 46.409 103.161C46.6417 103.161 46.8417 103.069 47.009 102.883C47.1764 102.697 47.2601 102.445 47.2601 102.126C47.2601 101.819 47.1774 101.578 47.0121 101.402C46.8468 101.225 46.6386 101.136 46.3876 101.136C46.1385 101.136 45.9273 101.225 45.7538 101.402C45.5803 101.578 45.4936 101.809 45.4936 102.096Z" fill="black"/>
<path d="M48.1143 103.61L49.4154 99.0193H49.8563L48.5582 103.61H48.1143Z" fill="black"/>
<path d="M50.1195 101.345C50.1195 100.82 50.1736 100.398 50.2818 100.079C50.392 99.7581 50.5543 99.5108 50.7686 99.3372C50.9849 99.1636 51.2564 99.0768 51.583 99.0768C51.8238 99.0768 52.035 99.1253 52.2167 99.2222C52.3983 99.317 52.5484 99.4553 52.6667 99.637C52.7851 99.8166 52.878 100.037 52.9453 100.297C53.0127 100.555 53.0464 100.905 53.0464 101.345C53.0464 101.865 52.9923 102.286 52.8841 102.607C52.7759 102.926 52.6137 103.174 52.3973 103.349C52.183 103.523 51.9116 103.61 51.583 103.61C51.1503 103.61 50.8104 103.456 50.5635 103.149C50.2675 102.78 50.1195 102.178 50.1195 101.345ZM50.6859 101.345C50.6859 102.073 50.7717 102.559 50.9431 102.801C51.1166 103.041 51.3299 103.161 51.583 103.161C51.836 103.161 52.0483 103.04 52.2198 102.798C52.3932 102.556 52.48 102.071 52.48 101.345C52.48 100.614 52.3932 100.128 52.2198 99.8883C52.0483 99.6481 51.834 99.528 51.5768 99.528C51.3237 99.528 51.1217 99.6339 50.9707 99.8459C50.7808 100.116 50.6859 100.616 50.6859 101.345Z" fill="black"/>
<path d="M56.5059 103.01V103.534H53.5393C53.5352 103.403 53.5566 103.276 53.6036 103.155C53.6791 102.956 53.7995 102.759 53.9648 102.565C54.1322 102.371 54.373 102.147 54.6873 101.893C55.1751 101.497 55.5048 101.184 55.6762 100.954C55.8477 100.722 55.9334 100.503 55.9334 100.297C55.9334 100.081 55.8548 99.8994 55.6976 99.752C55.5425 99.6027 55.3394 99.528 55.0884 99.528C54.8231 99.528 54.6108 99.6067 54.4516 99.7641C54.2924 99.9216 54.2118 100.14 54.2097 100.418L53.6434 100.361C53.6821 99.9428 53.8281 99.6249 54.0812 99.4069C54.3342 99.1868 54.6741 99.0768 55.1006 99.0768C55.5313 99.0768 55.8721 99.1949 56.1232 99.4311C56.3742 99.6672 56.4998 99.9599 56.4998 100.309C56.4998 100.487 56.463 100.661 56.3895 100.833C56.3161 101.005 56.1936 101.185 56.0222 101.375C55.8528 101.565 55.5701 101.825 55.1741 102.156C54.8435 102.431 54.6312 102.617 54.5373 102.716C54.4434 102.813 54.3659 102.911 54.3046 103.01H56.5059Z" fill="black"/>
<path d="M56.8396 103.61L58.1407 99.0193H58.5816L57.2835 103.61H56.8396Z" fill="black"/>
<path d="M61.7411 103.01V103.534H58.7745C58.7704 103.403 58.7918 103.276 58.8388 103.155C58.9143 102.956 59.0347 102.759 59.2 102.565C59.3674 102.371 59.6082 102.147 59.9225 101.893C60.4103 101.497 60.74 101.184 60.9114 100.954C61.0829 100.722 61.1686 100.503 61.1686 100.297C61.1686 100.081 61.09 99.8994 60.9328 99.752C60.7777 99.6027 60.5746 99.528 60.3236 99.528C60.0583 99.528 59.846 99.6067 59.6868 99.7641C59.5276 99.9216 59.447 100.14 59.4449 100.418L58.8786 100.361C58.9173 99.9428 59.0633 99.6249 59.3164 99.4069C59.5694 99.1868 59.9093 99.0768 60.3358 99.0768C60.7665 99.0768 61.1074 99.1949 61.3584 99.4311C61.6094 99.6672 61.735 99.9599 61.735 100.309C61.735 100.487 61.6982 100.661 61.6247 100.833C61.5513 101.005 61.4288 101.185 61.2574 101.375C61.088 101.565 60.8053 101.825 60.4093 102.156C60.0787 102.431 59.8664 102.617 59.7725 102.716C59.6786 102.813 59.6011 102.911 59.5399 103.01H61.7411Z" fill="black"/>
<path d="M62.335 101.345C62.335 100.82 62.3891 100.398 62.4973 100.079C62.6075 99.7581 62.7698 99.5108 62.9841 99.3372C63.2004 99.1636 63.4719 99.0768 63.7984 99.0768C64.0393 99.0768 64.2505 99.1253 64.4322 99.2222C64.6138 99.317 64.7638 99.4553 64.8822 99.637C65.0006 99.8166 65.0935 100.037 65.1608 100.297C65.2282 100.555 65.2618 100.905 65.2618 101.345C65.2618 101.865 65.2078 102.286 65.0996 102.607C64.9914 102.926 64.8291 103.174 64.6128 103.349C64.3985 103.523 64.127 103.61 63.7984 103.61C63.3657 103.61 63.0259 103.456 62.7789 103.149C62.483 102.78 62.335 102.178 62.335 101.345ZM62.9014 101.345C62.9014 102.073 62.9871 102.559 63.1586 102.801C63.3321 103.041 63.5453 103.161 63.7984 103.161C64.0515 103.161 64.2638 103.04 64.4352 102.798C64.6087 102.556 64.6955 102.071 64.6955 101.345C64.6955 100.614 64.6087 100.128 64.4352 99.8883C64.2638 99.6481 64.0495 99.528 63.7923 99.528C63.5392 99.528 63.3372 99.6339 63.1861 99.8459C62.9963 100.116 62.9014 100.616 62.9014 101.345Z" fill="black"/>
<path d="M68.7214 103.01V103.534H65.7547C65.7507 103.403 65.7721 103.276 65.819 103.155C65.8946 102.956 66.015 102.759 66.1803 102.565C66.3477 102.371 66.5885 102.147 66.9028 101.893C67.3906 101.497 67.7202 101.184 67.8917 100.954C68.0631 100.722 68.1489 100.503 68.1489 100.297C68.1489 100.081 68.0703 99.8994 67.9131 99.752C67.758 99.6027 67.5549 99.528 67.3039 99.528C67.0385 99.528 66.8263 99.6067 66.6671 99.7641C66.5079 99.9216 66.4273 100.14 66.4252 100.418L65.8588 100.361C65.8976 99.9428 66.0435 99.6249 66.2966 99.4069C66.5497 99.1868 66.8895 99.0768 67.3161 99.0768C67.7468 99.0768 68.0876 99.1949 68.3387 99.4311C68.5897 99.6672 68.7152 99.9599 68.7152 100.309C68.7152 100.487 68.6785 100.661 68.605 100.833C68.5315 101.005 68.4091 101.185 68.2376 101.375C68.0682 101.565 67.7856 101.825 67.3896 102.156C67.059 102.431 66.8467 102.617 66.7528 102.716C66.6589 102.813 66.5814 102.911 66.5201 103.01H68.7214Z" fill="black"/>
<path d="M71.391 103.534H70.8399V100.061C70.7073 100.186 70.5328 100.311 70.3164 100.436C70.1021 100.561 69.9092 100.655 69.7378 100.718V100.191C70.046 100.048 70.3154 99.8742 70.546 99.6703C70.7767 99.4664 70.9399 99.2686 71.0359 99.0768H71.391V103.534Z" fill="black"/>
<path d="M26.5059 111.376H28.4718C28.9156 111.376 29.2705 111.486 29.5364 111.705C29.8023 111.925 29.9353 112.246 29.9353 112.668C29.9353 113.074 29.7825 113.379 29.4768 113.581C29.6723 113.658 29.8375 113.796 29.9479 113.973C30.0756 114.182 30.1389 114.424 30.13 114.669C30.13 115.103 29.9918 115.438 29.7155 115.672C29.4391 115.906 29.0706 116.023 28.61 116.023H26.5059V111.376ZM27.4732 112.221V113.24H28.409C28.7691 113.24 28.9492 113.072 28.9492 112.737C28.9542 112.665 28.9427 112.593 28.9155 112.526C28.8883 112.459 28.8461 112.4 28.7922 112.352C28.6681 112.258 28.5143 112.212 28.3588 112.221H27.4732ZM27.4732 114.054V115.172H28.497C28.924 115.172 29.1376 114.987 29.1376 114.619C29.1438 114.54 29.1314 114.46 29.1015 114.386C29.0715 114.312 29.0248 114.246 28.9649 114.193C28.8344 114.095 28.6732 114.046 28.5095 114.054H27.4732Z" fill="black"/>
<path d="M33.5624 116.023L32.6454 114.352H31.8603V116.023H30.8867V111.376H32.8967C33.353 111.376 33.7194 111.508 33.9958 111.771C34.2722 112.034 34.4104 112.399 34.4104 112.867C34.4189 113.152 34.3506 113.434 34.2125 113.684C34.084 113.907 33.8902 114.085 33.6567 114.196L34.6553 116.023H33.5624ZM31.854 113.501H32.7773C32.9496 113.508 33.1178 113.448 33.2452 113.333C33.3065 113.272 33.3541 113.199 33.385 113.119C33.4158 113.039 33.4292 112.953 33.4242 112.867C33.4299 112.779 33.4169 112.692 33.3861 112.609C33.3553 112.527 33.3073 112.452 33.2452 112.389C33.1178 112.274 32.9496 112.214 32.7773 112.221H31.854V113.501Z" fill="black"/>
<path d="M39.8464 116.023H38.7786L38.3955 115.128H36.4421L36.0527 116.023H34.9912L37.0074 111.376H37.824L39.8464 116.023ZM36.7876 114.346H38.0564L37.422 112.861L36.7876 114.346Z" fill="black"/>
<path d="M41.7649 111.308C42.2799 111.308 42.6955 111.435 43.0116 111.69C43.1681 111.816 43.2937 111.976 43.3791 112.157C43.4645 112.339 43.5074 112.536 43.5047 112.736L42.5123 112.786C42.5145 112.698 42.4977 112.61 42.4631 112.529C42.4284 112.447 42.3767 112.374 42.3113 112.314C42.1641 112.192 41.9755 112.13 41.7837 112.14C41.6002 112.129 41.4189 112.183 41.2718 112.292C41.2113 112.341 41.1631 112.404 41.1309 112.474C41.0988 112.545 41.0836 112.622 41.0865 112.699C41.0817 112.772 41.0974 112.844 41.1318 112.908C41.1662 112.972 41.2179 113.026 41.2812 113.063C41.5102 113.174 41.7531 113.254 42.0035 113.302C42.5437 113.438 42.9446 113.604 43.2063 113.799C43.468 113.993 43.5989 114.283 43.5989 114.668C43.5989 115.136 43.4366 115.49 43.1121 115.731C42.7876 115.971 42.3741 116.091 41.8716 116.091C41.3147 116.091 40.8624 115.96 40.5149 115.699C40.1673 115.439 39.9914 115.072 39.9873 114.6L40.9734 114.55C40.9752 114.65 40.9998 114.748 41.0456 114.837C41.0913 114.925 41.1568 115.003 41.2372 115.063C41.4197 115.198 41.6437 115.267 41.8716 115.258C42.3657 115.258 42.6127 115.08 42.6128 114.724C42.615 114.647 42.5953 114.57 42.5559 114.503C42.5165 114.436 42.459 114.382 42.3898 114.345C42.1542 114.227 41.904 114.139 41.6455 114.084C41.4395 114.036 41.2362 113.976 41.0363 113.907C40.87 113.846 40.711 113.767 40.562 113.671C40.4091 113.579 40.286 113.445 40.2071 113.286C40.1277 113.112 40.0891 112.922 40.0941 112.73C40.0895 112.54 40.1258 112.351 40.2005 112.176C40.2752 112.001 40.3867 111.844 40.5275 111.715C40.8164 111.443 41.2289 111.308 41.7649 111.308Z" fill="black"/>
<path d="M45.2938 116.023H44.3203V111.376H45.2938V116.023Z" fill="black"/>
<path d="M47.1806 115.172H49.2282V116.023H46.207V111.376H47.1806L47.1806 115.172Z" fill="black"/>
<path d="M8.83753 83.905C9.97372 83.905 10.9473 84.2185 11.7583 84.8455C12.5692 85.4726 13.057 86.3195 13.2218 87.3861L11.2334 87.5571C11.1016 86.9219 10.8196 86.4333 10.3874 86.0914C9.95522 85.7494 9.41799 85.5784 8.77579 85.5784C7.96068 85.5784 7.30819 85.8532 6.81831 86.4028C6.32833 86.9525 6.08337 87.6874 6.08345 88.6075C6.08345 89.5684 6.33663 90.3135 6.84299 90.8427C7.34935 91.3721 7.99772 91.6367 8.78812 91.6366C9.4303 91.6366 9.96752 91.4697 10.3998 91.1358C10.8321 90.802 11.1099 90.3216 11.2334 89.6946L13.2341 89.8655C13.0612 90.9241 12.5713 91.7628 11.7645 92.3816C10.9575 93.0006 9.98595 93.31 8.84986 93.31C7.46666 93.31 6.33663 92.8865 5.45978 92.0397C4.58293 91.1929 4.14451 90.0488 4.14453 88.6075C4.14453 87.1582 4.58089 86.0121 5.45361 85.1692C6.32624 84.3264 7.45421 83.905 8.83753 83.905Z" fill="black"/>
<path d="M20.6315 90.585H16.2473C16.2636 90.9841 16.3892 91.2976 16.6239 91.5255C16.8586 91.7536 17.1776 91.8676 17.5811 91.8675C18.2232 91.8675 18.6143 91.6354 18.7543 91.1713L20.5698 91.2568C20.512 91.5562 20.3943 91.8412 20.2235 92.095C20.0528 92.3488 19.8325 92.5663 19.5756 92.7347C19.0048 93.1245 18.3239 93.3255 17.6305 93.3088C16.6424 93.3088 15.8458 93.0116 15.2407 92.4171C14.6355 91.8229 14.333 91.0249 14.333 90.0232C14.333 89.0136 14.6335 88.2136 15.2345 87.6231C15.8354 87.0328 16.6176 86.7376 17.5811 86.7375C18.5113 86.7375 19.2523 87.0164 19.8041 87.5742C20.3555 88.1321 20.6314 88.8995 20.6315 89.8766L20.6315 90.585ZM17.5687 88.13C17.3985 88.1221 17.2285 88.1477 17.0684 88.2054C16.9083 88.263 16.7614 88.3516 16.6362 88.4658C16.4016 88.6899 16.272 89.0014 16.2472 89.4002H18.8161C18.7994 89.0013 18.6862 88.6899 18.4764 88.4658C18.2665 88.242 17.9639 88.13 17.5687 88.13Z" fill="black"/>
<path d="M25.497 86.7988V88.521C24.9783 88.521 24.5666 88.6533 24.262 88.918C24.1112 89.0494 23.9919 89.2124 23.9129 89.3952C23.8338 89.578 23.797 89.7759 23.805 89.9745V93.1746H22.002V86.8599H23.7433V87.5805C24.0808 87.0595 24.6654 86.7989 25.497 86.7988Z" fill="black"/>
<path d="M28.9669 88.3986L28.9546 90.7437C28.9546 91.0695 29.0451 91.3097 29.2262 91.4644C29.4199 91.6235 29.6663 91.7062 29.9179 91.6964C30.1045 91.6916 30.2905 91.6712 30.4736 91.6354V93.2232C30.1423 93.271 29.808 93.2955 29.4733 93.2965C28.7487 93.2965 28.1785 93.1194 27.7628 92.7652C27.3469 92.411 27.1432 91.8797 27.1515 91.1712L27.1638 88.3986H26.0029V86.8596H27.1761L27.1885 84.771H28.9916L28.9792 86.8596H30.4736V88.3986H28.9669Z" fill="black"/>
<path d="M32.5862 83.7208C32.7293 83.7193 32.8713 83.746 33.0039 83.7995C33.1364 83.853 33.2568 83.9321 33.3581 84.0322C33.4593 84.1323 33.5393 84.2514 33.5934 84.3825C33.6474 84.5136 33.6745 84.654 33.673 84.7956C33.6752 84.9355 33.6483 85.0743 33.5942 85.2035C33.54 85.3327 33.4597 85.4495 33.3581 85.5468C33.2577 85.6481 33.1375 85.728 33.0047 85.7815C32.872 85.8351 32.7295 85.8612 32.5862 85.8583C32.4437 85.8616 32.3021 85.8357 32.1703 85.7821C32.0384 85.7284 31.9193 85.6483 31.8205 85.5468C31.6204 85.3448 31.5094 85.0727 31.5118 84.79C31.5141 84.5073 31.6295 84.2371 31.8328 84.0383C31.9298 83.9373 32.0467 83.857 32.1763 83.8024C32.3058 83.7478 32.4453 83.72 32.5862 83.7208ZM33.4877 93.1746H31.6846V86.8598H33.4877V93.1746Z" fill="black"/>
<path d="M38.2048 83.6107C38.4153 83.6095 38.6257 83.6217 38.8347 83.6473V85.1863C38.6953 85.1706 38.5551 85.1624 38.4148 85.1619C38.1312 85.1513 37.8545 85.2498 37.6429 85.4367C37.5424 85.529 37.4633 85.6418 37.4111 85.7673C37.3589 85.8927 37.3347 86.0279 37.3403 86.1634V86.8597H38.8223V88.3986H37.3403V93.1744H35.5496V88.3986H34.3887V86.8597H35.5496V86.2123C35.5496 85.4226 35.7904 84.7915 36.2721 84.3191C36.7537 83.8469 37.3979 83.6108 38.2048 83.6107ZM40.8107 83.7206C40.9538 83.7191 41.0958 83.7459 41.2284 83.7993C41.3609 83.8528 41.4813 83.9319 41.5825 84.0321C41.6838 84.1322 41.7638 84.2513 41.8178 84.3823C41.8719 84.5134 41.899 84.6539 41.8975 84.7954C41.8996 84.9353 41.8728 85.0741 41.8187 85.2033C41.7645 85.3325 41.6841 85.4493 41.5825 85.5466C41.4822 85.6479 41.362 85.7278 41.2292 85.7814C41.0965 85.8349 40.954 85.861 40.8107 85.8581C40.6682 85.8614 40.5266 85.8355 40.3947 85.7819C40.2629 85.7283 40.1438 85.6482 40.045 85.5466C39.8449 85.3447 39.7339 85.0726 39.7363 84.7899C39.7386 84.5072 39.854 84.2369 40.0573 84.0382C40.1543 83.9372 40.2712 83.8569 40.4008 83.8023C40.5303 83.7477 40.6698 83.7199 40.8107 83.7206ZM41.7122 93.1744H39.9091V86.8597H41.7122V93.1744Z" fill="black"/>
<path d="M46.3567 86.7375C47.1471 86.7375 47.8202 86.9574 48.3759 87.3971C48.9317 87.8368 49.2672 88.4312 49.3825 89.1804L47.6164 89.3269C47.5885 89.0269 47.4448 88.7491 47.2151 88.5513C46.9741 88.355 46.6687 88.2529 46.3567 88.2643C46.1586 88.2584 45.9617 88.2972 45.7809 88.3776C45.6001 88.458 45.4402 88.578 45.3131 88.7285C45.0455 89.038 44.9117 89.4695 44.9118 90.0231C44.9118 90.5688 45.0456 90.9963 45.3131 91.3056C45.5512 91.5649 45.878 91.7278 46.2304 91.7628C46.5828 91.7977 46.9358 91.7023 47.2212 91.495C47.4478 91.3042 47.5933 91.0359 47.6288 90.7438L49.3825 90.9026C49.259 91.6436 48.9214 92.2299 48.3698 92.6614C47.8181 93.0931 47.1471 93.3089 46.3567 93.3088C45.3934 93.3088 44.6071 93.0136 43.9979 92.4232C43.3885 91.8329 43.0838 91.0329 43.084 90.0231C43.084 89.0054 43.3886 88.2033 43.9979 87.617C44.607 87.0307 45.3933 86.7375 46.3567 86.7375Z" fill="black"/>
<path d="M53.1735 86.7375C54.038 86.7375 54.6967 86.9533 55.1495 87.3849C55.6022 87.8166 55.8286 88.4476 55.8287 89.2781V93.1744H54.0874V92.6614C53.6675 93.0931 53.1241 93.3089 52.4572 93.3088C51.7984 93.3088 51.2797 93.1479 50.9011 92.8263C50.5223 92.5047 50.3329 92.0426 50.333 91.44C50.333 90.235 51.1851 89.5958 52.8894 89.5223L54.0256 89.4613V89.217C54.0256 88.5656 53.7498 88.2399 53.1982 88.2399C52.9099 88.2399 52.6896 88.3213 52.5374 88.4842C52.3868 88.6426 52.3048 88.853 52.309 89.0704L50.5059 88.9971C50.5059 88.4108 50.7549 87.8877 51.253 87.4276C51.7511 86.9677 52.3912 86.7376 53.1735 86.7375ZM54.0256 90.6338L53.0624 90.6949C52.4449 90.7194 52.1361 90.9392 52.1361 91.3545C52.1361 91.7373 52.3831 91.9287 52.8771 91.9286C53.1767 91.9412 53.4708 91.8457 53.7045 91.6598C53.8127 91.566 53.8978 91.449 53.9534 91.3178C54.009 91.1866 54.0337 91.0446 54.0256 90.9025V90.6338Z" fill="black"/>
<path d="M63.8184 93.1745H62.1264V92.5271C61.9211 92.7731 61.6583 92.966 61.3607 93.089C61.0021 93.2414 60.6148 93.3164 60.2245 93.3089C59.3187 93.3089 58.5798 93.0076 58.0077 92.405C57.4354 91.8025 57.1493 91.0086 57.1494 90.0232C57.1494 89.0381 57.4355 88.2442 58.0077 87.6415C58.5799 87.039 59.3188 86.7377 60.2245 86.7376C61.0313 86.7376 61.6324 86.9616 62.0276 87.4094V83.6841H63.8184V93.1745ZM60.5209 88.2644C60.3117 88.2566 60.1033 88.2942 59.9102 88.3743C59.7172 88.4545 59.5442 88.5754 59.4032 88.7285C59.1192 89.0381 58.9772 89.4696 58.9772 90.0232C58.9772 90.5771 59.1192 91.0066 59.4032 91.3118C59.6956 91.5998 60.0897 91.764 60.5023 91.7697C60.9149 91.7754 61.3135 91.6222 61.6139 91.3424C61.8897 91.0574 62.0276 90.6625 62.0276 90.1576V89.8767C62.0276 89.3801 61.8897 88.9872 61.6139 88.698C61.4731 88.5533 61.3029 88.4398 61.1145 88.3651C60.9261 88.2903 60.7238 88.256 60.5209 88.2644H60.5209Z" fill="black"/>
<path d="M66.1583 87.6414C66.7962 87.0389 67.6093 86.7376 68.5974 86.7375C69.5854 86.7375 70.3984 87.0388 71.0365 87.6414C71.6745 88.2441 71.9935 89.038 71.9937 90.0231C71.9937 91.0003 71.6746 91.7922 71.0365 92.3988C70.3984 93.0055 69.5853 93.3088 68.5974 93.3088C67.6094 93.3088 66.7963 93.0055 66.1583 92.3988C65.5201 91.7923 65.2011 91.0004 65.2012 90.0231C65.2012 89.038 65.5202 88.2441 66.1583 87.6414ZM69.7336 88.7346C69.5852 88.5856 69.4083 88.4673 69.2132 88.3866C69.0182 88.3059 68.8088 88.2643 68.5974 88.2643C68.3859 88.2643 68.1766 88.3059 67.9815 88.3866C67.7865 88.4673 67.6096 88.5856 67.4612 88.7346C67.1729 89.0481 67.0288 89.4777 67.0289 90.0231C67.0289 90.5688 67.173 90.9963 67.4612 91.3056C67.7629 91.6029 68.1715 91.7698 68.5974 91.7698C69.0233 91.7698 69.4318 91.6029 69.7336 91.3056C70.0217 90.9963 70.1658 90.5688 70.1658 90.0231C70.1658 89.4777 70.0218 89.0482 69.7336 88.7346Z" fill="black"/>
</svg>
