<svg width="28" height="20" viewBox="0 0 28 20" fill="none" xmlns="http://www.w3.org/2000/svg">
<path d="M0.358843 16.1574C1.37698 16.8185 2.52877 17.2383 3.7287 17.3858V18.7802C3.7287 19.018 3.82177 19.246 3.98743 19.4141C4.1531 19.5822 4.37778 19.6766 4.61206 19.6766H5.38092C5.49693 19.6788 5.61223 19.6578 5.72023 19.6148C5.82824 19.5717 5.92683 19.5075 6.01038 19.4258C6.09393 19.3441 6.1608 19.2465 6.20717 19.1386C6.25355 19.0307 6.27851 18.9145 6.28064 18.7968V17.2364C7.32159 17.0508 8.2588 16.4829 8.91351 15.641C9.56822 14.799 9.89461 13.742 9.83044 12.6715C9.83044 8.4883 3.97408 8.3887 3.97408 6.64572C3.97408 5.73272 4.44848 5.45052 5.41363 5.45052C6.05647 5.44855 6.68037 5.6713 7.18036 6.08132C7.35412 6.20421 7.56744 6.25543 7.77704 6.22461C7.98665 6.19378 8.17686 6.08321 8.3091 5.91532L9.15974 4.98573C9.31558 4.82705 9.40308 4.61216 9.40308 4.38813C9.40308 4.16411 9.31558 3.94922 9.15974 3.79054C8.37027 3.09752 7.40823 2.63811 6.37879 2.46255V0.868961C6.37959 0.746714 6.3548 0.625689 6.30605 0.513896C6.2573 0.402103 6.18571 0.302093 6.09601 0.220486C6.00631 0.138879 5.90055 0.0775374 5.78573 0.0405213C5.67091 0.00350523 5.54966 -0.00834071 5.42999 0.00576768H4.57935C4.35374 0.00576768 4.13738 0.096711 3.97785 0.258591C3.81832 0.420471 3.7287 0.640028 3.7287 0.868961V2.42935C2.71509 2.6031 1.79985 3.14909 1.15731 3.96335C0.514774 4.77761 0.189818 5.80324 0.244333 6.84491C0.244333 10.8787 6.10069 11.1277 6.10069 12.9703C6.10069 13.8667 5.64265 14.2485 4.46484 14.2485C3.59518 14.2329 2.75076 13.9492 2.04377 13.4351C1.84995 13.317 1.61834 13.2804 1.39832 13.3331C1.1783 13.3858 0.987273 13.5237 0.865958 13.7173L0.16254 14.9456C0.0963591 15.0381 0.0489098 15.1429 0.0229424 15.254C-0.00302506 15.3652 -0.00699411 15.4804 0.0112653 15.5932C0.0295246 15.7059 0.0696492 15.8138 0.129313 15.9106C0.188978 16.0075 0.266995 16.0914 0.358843 16.1574Z" fill="white"/>
<path d="M28.0003 4.59494C28.0003 3.81871 27.371 3.18945 26.5948 3.18945H15.6136C14.8374 3.18945 14.2081 3.81871 14.2081 4.59494C14.2081 5.37116 14.8374 6.00042 15.6136 6.00042H26.5948C27.371 6.00042 28.0003 5.37116 28.0003 4.59494ZM28.0003 10.2169C28.0003 9.44064 27.371 8.81139 26.5948 8.81139H15.6136C14.8374 8.81139 14.2081 9.44064 14.2081 10.2169C14.2081 10.9931 14.8374 11.6224 15.6136 11.6224H26.5948C27.371 11.6224 28.0003 10.9931 28.0003 10.2169ZM14.2081 15.8388C14.2081 16.615 14.8374 17.2443 15.6136 17.2443H23.2755C24.0518 17.2443 24.681 16.615 24.681 15.8388C24.681 15.0626 24.0518 14.4333 23.2755 14.4333H15.6136C14.8374 14.4333 14.2081 15.0626 14.2081 15.8388Z" fill="white"/>
</svg>
