<svg width="21" height="20" viewBox="0 0 21 20" fill="none" xmlns="http://www.w3.org/2000/svg">
<path fill-rule="evenodd" clip-rule="evenodd" d="M0 2.47858C0 1.1097 1.1097 0 2.47858 0C3.84746 0 4.95716 1.1097 4.95716 2.47858V17.5214C4.95716 18.8903 3.84746 20 2.47858 20C1.1097 20 0 18.8903 0 17.5214V2.47858ZM7.52053 2.47858C7.52053 1.1097 8.63023 0 9.99911 0C11.368 0 12.4777 1.1097 12.4777 2.47858V13.077C12.4777 14.4459 11.368 15.5556 9.99911 15.5556C8.63023 15.5556 7.52053 14.4459 7.52053 13.077V2.47858ZM17.529 0C16.1601 0 15.0504 1.1097 15.0504 2.47858V6.27914C15.0504 7.64802 16.1601 8.75772 17.529 8.75772C18.8978 8.75772 20.0075 7.64802 20.0075 6.27914V2.47858C20.0075 1.1097 18.8978 0 17.529 0Z" fill="white"/>
</svg>
