<svg width="20" height="19" viewBox="0 0 20 19" fill="none" xmlns="http://www.w3.org/2000/svg">
<path d="M15.6215 11.5618C16.0749 11.731 18.4927 12.9154 18.9839 13.1598C19.475 13.4042 19.8056 13.5264 19.9283 13.7332C20.0511 13.94 20.0511 14.9175 19.645 16.0643C19.2294 17.2111 17.2649 18.2545 16.3205 18.3955C15.4704 18.5177 14.4032 18.5741 13.2226 18.1981C12.5048 17.9725 11.5887 17.6717 10.4175 17.1641C5.47793 15.0397 2.25728 10.0954 2.01172 9.76643C1.76616 9.43744 0 7.11568 0 4.69992C0 2.28416 1.26559 1.09978 1.71894 0.610989C2.17228 0.122198 2.70119 0 3.03175 0C3.36232 0 3.69288 0 3.97622 0.0188002C4.27845 0.0282001 4.68458 -0.103397 5.08125 0.855386C5.49682 1.83297 6.47907 4.24873 6.60185 4.49312C6.72463 4.73752 6.80019 5.01951 6.63963 5.34851C6.47907 5.6775 6.39407 5.8843 6.14851 6.16629C5.90294 6.44829 5.62905 6.80548 5.41182 7.02168C5.16626 7.26607 4.91125 7.52927 5.19459 8.01806C5.48738 8.50685 6.46963 10.1142 7.93356 11.4114C9.81305 13.0846 11.3998 13.6016 11.8909 13.846C12.382 14.0904 12.6748 14.0528 12.9581 13.7238C13.2415 13.4042 14.186 12.295 14.5165 11.8062C14.8376 11.3174 15.1682 11.402 15.6215 11.5618Z" fill="white"/>
</svg>
