<svg height="59.12" viewBox="0 0 10.77 59.12" width="10.77" xmlns="http://www.w3.org/2000/svg"><path d="m10.51 34.17a2.34 2.34 0 0 0 0-2.15l-1.72-3.5c0-3.4-.06-7.75-.11-10.58a2.58 2.58 0 0 1 -.78-1.38v-7.63c-.11-1.77-1.48-8-2.51-8.93-1 .89-2.4 7.16-2.51 8.93v7.63a2.58 2.58 0 0 1 -.78 1.38c-.11 2.82-.11 7.18-.11 10.58l-1.72 3.5a2.34 2.34 0 0 0 0 2.15h1.79c.11 1 .18 2.87.22 4.75l-1.24 2a1.28 1.28 0 0 0 0 1l1.26.38v.62h6.2v-.62l1.26-.38a1.28 1.28 0 0 0 0-1l-1.24-2c0-1.87.11-3.75.22-4.75h1.79zm-8.94 14.32h.95v10.64h-.95zm3.3-2.83h.95v11.13h-.95zm3.29 2.83h.95v10.64h-.95z" fill="#155bfb"/></svg>