<svg width="26" height="20" viewBox="0 0 26 20" fill="none" xmlns="http://www.w3.org/2000/svg">
<path fill-rule="evenodd" clip-rule="evenodd" d="M24.5672 1.43282H1.43282L1.43282 4.63169H1.87766V4.62863H24.3337V4.63169H24.5672L24.5672 1.43282ZM24.3337 6.06451H24.5672C25.3585 6.06451 26 5.42301 26 4.63169V1.43282C26 0.641495 25.3585 0 24.5672 0H1.43282C0.641498 0 0 0.641495 0 1.43282V4.63169C0 5.42301 0.641496 6.06451 1.43282 6.06451H1.87766V17.3778C1.87766 18.5924 2.86226 19.577 4.07687 19.577H22.1345C23.3491 19.577 24.3337 18.5924 24.3337 17.3778V6.06451ZM14.6555 6.53547H11.5559V9.63503H14.6555V6.53547Z" fill="white"/>
</svg>
